# xmcd CD database file
#
# Track frame offsets:
#	150
#	21197
#	55347
#	74350
#	94044
#	119416
#	164301
#	186387
#	211597
#	239036
#
# Disc length: 3700 seconds
#
# Revision: 0
# Processed by: cddbd v1.5.2PL0 Copyright (c) Steve Scherf et al.
# Submitted via: CDex 1.51
#
DISCID=8d0e720a
DTITLE=Sumi Tonooka Trio - Long Ago Today
DYEAR=2005
DGENRE=Jazz
TTITLE0=Be The Dance
TTITLE1=All Of You
TTITLE2=The Clinging
TTITLE3=Dreaming Of Tibet
TTITLE4=Quantum Question
TTITLE5=Long Ago Today
TTITLE6=Renewal
TTITLE7=Morrocan Daze
TTITLE8=Just For Now
TTITLE9=Nami's Song
EXTD=YEAR: 2005
EXTT0=
EXTT1=
EXTT2=
EXTT3=
EXTT4=
EXTT5=
EXTT6=
EXTT7=
EXTT8=
EXTT9=
PLAYORDER=
